<svg width="25" height="25" viewBox="0 0 28 28" fill="none" xmlns="http://www.w3.org/2000/svg">
<path d="M2.00489 5.11485L2.00472 5.11518C1.0051 7.07046 0.822201 9.82547 2.55339 13.2425L2.55343 13.2426C4.21443 16.5194 7.63556 20.3818 13.7171 24.5536L13.9999 24.7476L14.2828 24.5536C20.3644 20.3817 23.7836 16.5194 25.4463 13.2428L25.4465 13.2424C27.1775 9.824 26.9967 7.07056 25.9949 5.11484C23.9063 1.03684 18.1052 -0.129619 14.8963 3.16888L14.896 3.16912L13.9997 4.09175L13.1035 3.17064C9.89482 -0.127698 4.0937 1.03662 2.00489 5.11485ZM13.3533 2.36819L13.354 2.36886C13.4526 2.45922 13.5485 2.5519 13.6403 2.64694L14.0016 3.02087L14.3611 2.64528C14.4508 2.55157 14.5442 2.46141 14.6409 2.375L14.641 2.37505L14.6467 2.36978C18.3511 -1.04274 24.595 0.456816 26.7474 4.94539C27.8094 7.16017 27.8914 10.157 26.0426 13.7198C24.2135 17.2446 20.4968 21.312 13.9999 25.6498C7.503 21.3124 3.78615 17.2454 1.95702 13.721C0.108082 10.1585 0.189873 7.1619 1.25183 4.94712C3.40404 0.458528 9.64807 -1.04194 13.3533 2.36819Z" stroke="#5C616F"/>
</svg>
