<svg width="28" height="28" viewBox="0 0 28 28" fill="none" xmlns="http://www.w3.org/2000/svg">
<path d="M11.352 3.25301C12.8337 2.07585 14.9103 2.02918 16.4375 3.11301L16.6253 3.25301L23.7292 8.93585C24.5108 9.54135 24.9903 10.4408 25.072 11.4197L25.0837 11.6542V21.1147C25.0837 23.553 23.1575 25.5364 20.7437 25.6647H18.422C17.3125 25.6425 16.4153 24.7792 16.3337 23.6942L16.322 23.5297V20.1942C16.322 19.8313 16.0525 19.5292 15.692 19.4697L15.587 19.458H12.4708C12.0987 19.4697 11.7953 19.738 11.7487 20.088L11.737 20.1942V23.5192C11.737 23.588 11.7242 23.6697 11.7137 23.728L11.702 23.7525L11.6892 23.833C11.5503 24.8259 10.7337 25.583 9.71866 25.6542L9.56699 25.6647H7.47866C5.04033 25.6647 3.04533 23.7525 2.91699 21.348V11.6542C2.92749 10.6613 3.36033 9.73968 4.08366 9.09801L11.352 3.25301ZM15.6103 4.52468C14.7237 3.81301 13.4637 3.77918 12.5303 4.39635L12.3542 4.52468L5.26083 10.2425C4.85366 10.5447 4.60866 10.9997 4.55033 11.478L4.53749 11.6647V21.1147C4.53749 22.6664 5.75083 23.938 7.29199 24.0314H9.56699C9.82366 24.0314 10.0453 23.8575 10.0792 23.6125L10.1037 23.4025L10.1153 23.343V20.1942C10.1153 18.9458 11.072 17.9308 12.297 17.8363H15.587C16.8342 17.8363 17.8492 18.7942 17.9437 20.0192V23.5297C17.9437 23.7747 18.1187 23.9859 18.352 24.0314H20.5208C22.0842 24.0314 23.3558 22.8309 23.4492 21.3014L23.462 21.1147V11.6647C23.4492 11.1642 23.2403 10.6963 22.8787 10.3475L22.727 10.218L15.6103 4.52468Z" fill="#5C616F"/>
</svg>
