<svg width="28" height="28" viewBox="0 0 28 28" fill="none" xmlns="http://www.w3.org/2000/svg">
<path d="M11.6239 22.4326C12.2071 22.3092 15.761 22.3092 16.3442 22.4326C16.8428 22.5477 17.382 22.8168 17.382 23.4043C17.353 23.9636 17.0248 24.4595 16.5715 24.7744C15.9836 25.2326 15.2937 25.5229 14.5725 25.6275C14.1736 25.6792 13.7817 25.6803 13.3968 25.6275C12.6744 25.5229 11.9845 25.2326 11.3978 24.7732C10.9432 24.4595 10.6151 23.9636 10.5861 23.4043C10.5861 22.8168 11.1253 22.5477 11.6239 22.4326ZM14.0529 2.33334C16.4798 2.33334 18.9588 3.48486 20.4314 5.39544C21.3868 6.62569 21.8251 7.85477 21.8251 9.76535V10.2624C21.8251 11.7276 22.2124 12.5913 23.0646 13.5865C23.7104 14.3197 23.9168 15.2609 23.9168 16.282C23.9168 17.3019 23.5817 18.2702 22.9104 19.0563C22.0315 19.9986 20.792 20.6002 19.5269 20.7048C17.6938 20.8611 15.8594 20.9927 14.0007 20.9927C12.1409 20.9927 10.3077 20.914 8.47454 20.7048C7.20836 20.6002 5.96885 19.9986 5.09111 19.0563C4.41975 18.2702 4.0835 17.3019 4.0835 16.282C4.0835 15.2609 4.29105 14.3197 4.93573 13.5865C5.81464 12.5913 6.1764 11.7276 6.1764 10.2624V9.76535C6.1764 7.80307 6.66571 6.51994 7.67332 5.26384C9.1714 3.43198 11.5727 2.33334 13.9486 2.33334H14.0529Z" fill="#F26333"/>
</svg>
