<svg width="28" height="28" viewBox="0 0 28 28" fill="none" xmlns="http://www.w3.org/2000/svg">
<path d="M17.0428 22.9724C17.3888 23.2542 17.4436 23.7665 17.1653 24.1168C16.9595 24.3757 16.7217 24.6076 16.4697 24.7975C15.6208 25.4636 14.5415 25.7657 13.4697 25.638C12.3969 25.5102 11.4183 24.9623 10.7505 24.1138C10.4738 23.7622 10.531 23.2501 10.8784 22.97C11.2257 22.6898 11.7316 22.7478 12.0083 23.0994C12.4111 23.6111 13.0046 23.9435 13.6576 24.0212C14.3116 24.0991 14.9694 23.915 15.4965 23.5016C15.6519 23.3843 15.7916 23.2482 15.9122 23.0964C16.1906 22.7461 16.6968 22.6906 17.0428 22.9724ZM6.01098 10.4997L6.02534 9.80456C6.03561 9.50723 6.0515 9.23122 6.07482 8.96111C6.42446 5.18532 10.0284 2.33333 13.9591 2.33333H14.0423C17.9708 2.33333 21.5759 5.18332 21.9374 8.96625C21.9582 9.20673 21.9671 9.42034 21.9698 9.72074L21.9708 10.6398C21.9717 10.7235 21.9731 10.7971 21.9753 10.8658L21.986 11.0947L22.038 11.313C22.2022 11.921 22.4907 12.4894 22.8858 12.9829L23.0616 13.1897L23.1336 13.2821C23.6074 13.9903 23.8781 14.8143 23.9168 15.7018L23.9157 16.1724C23.8826 17.2235 23.4967 18.2386 22.7896 19.0845C21.8531 20.0784 20.5841 20.6959 19.2354 20.82C15.7525 21.1982 12.2385 21.1982 8.76529 20.821C7.40729 20.6904 6.14201 20.0747 5.16456 19.0427C4.44379 18.164 4.06065 17.0576 4.08455 15.9395L4.08554 15.6615C4.12718 14.8114 4.39621 13.9882 4.86442 13.2769L4.94279 13.1761C5.48962 12.5766 5.86347 11.8429 6.02568 11.0519L6.00813 11.1229L6.01098 10.4997ZM14.0423 3.96124H13.9591C10.8111 3.96124 7.94287 6.23101 7.67645 9.1079C7.66281 9.26599 7.65193 9.42908 7.64343 9.60073L7.6247 10.1448L7.61709 11.2173L7.6003 11.3828C7.37867 12.4635 6.86866 13.4644 6.12434 14.2804L6.18182 14.2138L6.07902 14.3839C5.88645 14.7309 5.76221 15.1077 5.71312 15.4796L5.69274 15.7018L5.69256 15.957C5.67679 16.7 5.92784 17.4249 6.3628 17.9586C7.03378 18.6649 7.94146 19.1065 8.92712 19.2014C12.296 19.5672 15.695 19.5672 19.0767 19.2001C20.0518 19.1103 20.9588 18.669 21.5933 17.9978C22.0734 17.4219 22.3272 16.6946 22.3086 15.9292L22.3096 15.7385C22.285 15.1883 22.1097 14.6548 21.8021 14.1951L21.8199 14.2246L21.659 14.036C21.1044 13.3514 20.7015 12.5574 20.4771 11.7063L20.4014 11.3845L20.3864 11.2764C20.3751 11.1185 20.3685 10.9781 20.3649 10.8093L20.3618 9.75391C20.3596 9.48551 20.3523 9.30484 20.336 9.11547C20.0603 6.23087 17.1894 3.96124 14.0423 3.96124Z" fill="#5C616F"/>
</svg>
