<svg width="20" height="24" viewBox="0 0 20 24" fill="none" xmlns="http://www.w3.org/2000/svg">
<path d="M7.4683 15.291C9.1527 15.1424 10.8468 15.1424 12.5312 15.291L13.069 15.3365C13.8046 15.409 14.535 15.5226 15.2538 15.676C17.0858 16.0534 18.4162 16.723 19.0051 17.9649C19.4426 18.8888 19.4426 19.9615 19.0049 20.8858C18.4145 22.1309 17.067 22.806 15.2674 23.161L14.7222 23.2742C13.9935 23.4141 13.2586 23.5095 12.5286 23.5595C11.1588 23.6761 9.7827 23.6973 8.4552 23.6243C8.3089 23.6243 8.2107 23.6238 8.1241 23.6218L7.9558 23.6155C7.7512 23.605 7.5637 23.5836 7.4851 23.5605C6.5615 23.4978 5.64409 23.3641 4.76401 23.1655L4.46548 23.1032C2.79896 22.7329 1.56479 22.0649 0.993907 20.8845C0.777707 20.4264 0.665877 19.9258 0.666527 19.4232C0.664647 18.9169 0.777387 18.4169 1.00164 17.9498C1.59619 16.7557 2.99307 16.0371 4.73912 15.6774C5.64377 15.4835 6.5609 15.354 7.4683 15.291ZM12.384 16.9735C10.7975 16.8335 9.2019 16.8335 7.6 16.9747C6.7561 17.0334 5.91738 17.1519 5.08359 17.3305C3.79225 17.5966 2.80494 18.1045 2.51124 18.6942C2.40309 18.9195 2.34737 19.1666 2.3483 19.4211C2.34798 19.677 2.40444 19.9298 2.51014 20.1538C2.8122 20.7783 3.74385 21.2451 5.1089 21.5127L5.52017 21.5997C6.209 21.7363 6.9184 21.8304 7.7067 21.8899C7.8063 21.9099 7.9137 21.9222 8.0412 21.9287L8.5004 21.9366C9.7956 22.0066 11.0941 21.9866 12.4003 21.8755C13.2422 21.8178 14.0785 21.6964 14.9226 21.508L15.1851 21.4525C16.3839 21.1806 17.2133 20.7358 17.4863 20.1601C17.7065 19.6951 17.7065 19.1552 17.4865 18.6906C17.1943 18.0744 16.2708 17.6097 14.91 17.3293C14.0821 17.1526 13.2431 17.0341 12.3988 16.9747L12.384 16.9735ZM10.0048 0.333328C13.4279 0.333328 16.2028 3.12007 16.2028 6.5577C16.2028 9.9953 13.4279 12.7821 10.0048 12.7821C6.5818 12.7821 3.8069 9.9953 3.8069 6.5577C3.8069 3.12007 6.5818 0.333328 10.0048 0.333328ZM10.0048 2.02228C7.5106 2.02228 5.48868 4.05285 5.48868 6.5577C5.48868 9.0625 7.5106 11.0931 10.0048 11.0931C12.4991 11.0931 14.521 9.0625 14.521 6.5577C14.521 4.05285 12.4991 2.02228 10.0048 2.02228Z" fill="#5C616F"/>
</svg>
